<?xml version="1.0" encoding="UTF-8"?>
<!-- Generated by Pixelmator Pro 3.7.1 -->
<svg width="745" height="639" viewBox="0 0 745 639" xmlns="http://www.w3.org/2000/svg">
    <path id="LogoOutline" fill="#ffffff" fill-rule="evenodd" stroke="none" d="M 410.138 638.010925 C 385.242218 637.975891 338.201599 637.871704 305.603058 637.779541 C 271.649567 637.683411 241.164017 637.138062 234.231277 636.502747 C 227.575241 635.8927 217.446854 634.269958 211.723755 632.896545 C 206.000656 631.523193 197.266769 629.22699 192.31517 627.794006 C 187.363556 626.361023 177.780884 622.751099 171.020325 619.77179 C 164.259888 616.792542 154.356552 611.851929 149.01297 608.792786 C 143.66951 605.733521 135.246033 600.159668 130.294418 596.406433 C 125.342819 592.653137 117.240013 585.783997 112.288406 581.141724 C 107.3368 576.49939 99.69899 568.57782 95.315445 563.538025 C 90.932022 558.498413 84.52961 550.446106 81.087906 545.644226 C 77.64608 540.842224 72.018837 531.75116 68.582748 525.44165 C 65.14666 519.132202 59.927387 508.103485 56.984386 500.933472 C 54.041386 493.763489 50.341175 482.495178 48.761913 475.893005 C 47.182526 469.290833 44.849472 457.136719 43.577438 448.883972 C 41.723305 436.854309 41.264896 429.812653 41.265873 413.372101 C 41.266975 395.903748 41.675312 390.271484 44.021679 375.359375 C 45.536713 365.731171 47.900784 352.901917 49.275146 346.849854 C 50.649628 340.797791 53.839172 328.868866 56.363331 320.340973 C 58.887367 311.81311 62.710178 299.208923 64.85836 292.331604 C 67.00666 285.454315 70.585861 272.399902 72.812187 263.32193 C 75.845673 250.952545 77.011833 243.870087 77.465721 235.059296 C 77.811668 228.345612 77.620682 220.621368 77.02063 217.053284 C 76.442558 213.616333 74.994682 208.219147 73.803001 205.059387 C 72.61132 201.899658 69.616173 196.627014 67.147087 193.342468 C 64.678001 190.057922 59.645069 185.113037 55.962563 182.353912 C 52.280056 179.594574 44.991241 175.571625 39.764153 173.413422 C 34.53743 171.255249 25.534418 168.046173 19.757462 166.282013 C 10.594241 163.483734 8.720324 162.52063 5.072131 158.734955 C 1.855357 155.396912 0.729614 153.324921 0.194523 149.756836 C -0.244222 146.830566 0.06826 142.28656 1.04112 137.447784 C 1.889304 133.228973 3.892049 125.72583 5.491704 120.774231 C 7.091361 115.822632 11.172926 106.369385 14.561754 99.767212 C 17.950705 93.165039 23.703606 83.755981 27.345936 78.858398 C 30.98839 73.960632 38.355232 65.566833 43.716644 60.205139 C 49.078178 54.84375 57.472099 47.491943 62.369854 43.868164 C 67.267487 40.244263 76.451469 34.617004 82.778534 31.362854 C 89.105606 28.108887 99.233994 23.874023 105.286064 21.952148 C 111.338135 20.030212 120.5662 17.620972 125.792923 16.598328 C 133.295914 15.130127 139.928146 14.73877 157.303452 14.73877 C 174.166641 14.73877 181.310257 15.142029 187.864456 16.463989 C 192.569031 17.413025 200.446671 19.350952 205.370316 20.770569 C 210.294083 22.190125 219.711655 25.915283 226.298325 29.048523 C 232.88501 32.181885 242.563171 37.606079 247.805527 41.102478 C 253.04776 44.598877 261.101471 50.65509 265.702484 54.560974 C 270.30365 58.466797 277.055908 64.986816 280.70752 69.049927 C 284.359253 73.113037 289.675232 79.531677 292.521027 83.313477 C 295.36673 87.095276 300.237488 94.67981 303.345093 100.168213 C 306.452698 105.656616 310.999756 115.239075 313.449921 121.462708 C 315.899963 127.686218 318.806915 136.279175 319.909821 140.558197 C 321.012756 144.837219 322.538147 152.939911 323.299652 158.56424 C 324.061249 164.188538 324.982452 173.067871 325.346832 178.295929 C 325.711334 183.523987 325.495575 193.427338 324.867554 200.303284 C 324.239655 207.17923 322.836609 217.432678 321.749939 223.088623 C 320.663147 228.74469 317.536469 239.998444 314.801697 248.096985 C 312.066895 256.195648 306.623901 269.348969 302.706329 277.326599 C 298.788757 285.30423 295.354492 292.903107 295.07486 294.212738 C 294.761292 295.680756 294.984375 296.44812 295.656372 296.213409 C 296.25592 296.00412 302.284058 291.477814 309.052338 286.154999 C 315.820587 280.832153 326.506897 272.504303 332.79953 267.648804 C 339.092163 262.793182 347.9198 255.342194 352.416565 251.091034 C 356.9133 246.839844 362.496948 240.893036 364.824768 237.875916 C 367.152435 234.858673 371.399475 228.15036 374.262482 222.968445 C 377.12561 217.786682 380.895325 209.328644 382.639557 204.172974 C 384.383911 199.017212 387.436066 186.246094 389.422333 175.792633 C 391.4086 165.339203 394.627319 151.834686 396.575134 145.782623 C 398.522797 139.73053 402.354889 129.210175 405.090668 122.403931 C 409.195313 112.192017 409.990509 109.219482 409.639923 105.398254 C 409.406311 102.851379 408.578766 95.590759 407.801056 89.263733 C 407.023193 82.936646 406.386749 70.947754 406.386749 62.622009 C 406.386749 51.991577 406.919037 44.899292 408.174225 38.802856 C 409.15744 34.028198 410.876648 27.676453 411.994843 24.687927 C 413.112885 21.699341 416.00592 16.622742 418.423492 13.406555 C 420.841278 10.190369 424.57251 6.343872 426.715454 4.858887 C 428.918213 3.332397 432.920044 1.793884 435.922638 1.319275 C 439.558502 0.744629 443.282135 0.908386 447.728577 1.838745 C 451.593262 2.647339 456.893005 4.791382 460.815338 7.133118 C 464.440826 9.297668 470.856934 14.058777 475.073181 17.71344 C 479.289551 21.367981 485.394379 27.59552 488.639587 31.55249 C 491.884705 35.509399 496.901154 42.191589 499.787262 46.401855 C 503.073639 51.195923 506.041412 54.413696 507.728149 55.011292 C 509.209473 55.536377 515.373169 56.917419 521.425232 58.080444 C 527.477295 59.243652 538.055786 62.050903 544.933105 64.318848 C 551.810364 66.586914 561.713623 70.636536 566.94043 73.318054 C 572.167297 75.999634 579.819763 80.416016 583.946106 83.132507 C 588.07251 85.848755 594.824768 90.971802 598.951172 94.516907 C 603.077515 98.062073 611.630432 106.327515 617.95752 112.884644 C 624.284546 119.441772 635.019592 131.994934 641.81311 140.780334 C 648.606689 149.565735 658.959961 163.178558 664.820801 171.030914 C 670.681702 178.88327 677.201904 188.118683 679.310303 191.554016 C 683.065186 197.671539 683.135315 197.964722 682.726501 205.802673 C 682.406311 211.94342 681.547119 215.618103 679.033569 221.596527 C 677.232178 225.881653 673.720032 232.183807 671.229248 235.601227 C 668.738403 239.018616 662.372986 246.118164 657.083862 251.377747 C 649.58551 258.834442 645.195129 262.225616 637.151428 266.773743 C 631.477661 269.981873 621.335083 274.755432 614.612366 277.381561 C 607.889709 280.00766 595.651184 283.802399 587.415771 285.814056 C 579.180359 287.825958 570.659729 290.452942 568.481018 291.651947 C 566.302551 292.851074 562.810669 296.082886 560.721558 298.833801 C 558.632263 301.584717 555.984375 306.311279 554.83728 309.337311 C 553.69043 312.363342 551.883423 319.293518 550.821777 324.737732 C 549.760376 330.181915 549.143738 335.429657 549.451416 336.3992 C 549.759155 337.368896 550.781494 338.462891 551.72345 338.830322 C 552.665161 339.197876 558.612732 339.896362 564.939758 340.382599 C 571.266846 340.868713 579.707153 340.993774 583.696045 340.660278 C 590.948486 340.054108 590.948486 340.054108 590.948486 332.564301 C 590.948486 328.445007 591.49408 323.254059 592.160522 321.028839 C 592.827271 318.803619 594.801575 315.55423 596.547974 313.8078 C 598.424133 311.931671 601.588257 310.163025 604.281555 309.484802 C 607.462036 308.684021 626.774658 308.344177 668.167175 308.360901 C 700.796997 308.373962 729.259888 308.794159 731.41803 309.2948 C 733.576233 309.795349 736.502258 311.048828 737.920227 312.080414 C 739.338196 313.112 741.511292 315.938141 742.749207 318.36084 C 744.988281 322.742432 745 323.009979 745 369.411957 C 745 416.058411 745 416.058411 742.68158 420.442566 C 741.036255 423.553833 739.075623 425.472351 735.929321 427.049866 C 731.512817 429.264252 731.256836 429.274017 670.333191 429.561584 C 622.863953 429.785645 608.08313 429.561829 604.311096 428.561737 C 600.820923 427.636383 598.041687 425.889954 594.449646 422.364868 C 591.69873 419.665222 588.026123 416.750061 586.288452 415.886841 C 583.433533 414.468658 582.420471 414.464752 575.784973 415.846802 C 571.745789 416.688141 564.614685 418.28656 559.93811 419.399017 C 555.261475 420.511444 547.998535 422.556091 543.798157 423.942627 C 539.597778 425.329346 535.372986 427.334534 534.410034 428.398865 C 533.239502 429.692261 531.876221 435.045837 530.298279 444.544861 C 529 452.360962 526.804688 463.512146 525.419739 469.325134 C 524.034729 475.138245 521.546082 484.69989 519.889526 490.573425 C 518.232727 496.446991 514.624268 506.733643 511.870514 513.4328 C 509.116791 520.131897 504.359833 530.000793 501.299469 535.363464 C 498.239014 540.726196 491.98349 550.184692 487.398102 556.382446 C 482.812714 562.580078 479.29248 568.254211 479.575531 568.991638 C 479.858459 569.729065 481.512817 571.195374 483.251801 572.250183 C 484.990662 573.304993 488.392822 576.13916 490.811951 578.548401 C 493.23111 580.957581 496.846191 585.434265 498.84552 588.496582 C 500.844849 591.558899 503.759888 596.915283 505.323639 600.399475 C 507.018311 604.175903 508.547882 609.888611 509.110687 614.543396 C 509.943359 621.430542 509.821106 622.880249 508.075775 626.825928 C 506.762604 629.794556 504.662903 632.249512 501.834442 634.123291 C 497.580933 636.940979 497.528076 636.948059 476.487579 637.510742 C 464.891174 637.820923 435.033905 638.045959 410.138 638.010925 Z M 391.926361 624.008301 C 486.061096 623.945435 490.630981 623.859253 493.325256 622.093506 C 495.692993 620.541809 496.062988 619.737732 495.626434 617.091858 C 495.340332 615.357849 493.920898 610.788086 492.472168 606.936829 C 491.023438 603.085571 488.27655 597.573242 486.36795 594.687134 C 484.459381 591.801147 480.762939 587.889465 478.153412 585.994385 C 475.544159 584.099365 471.158417 581.880249 468.407501 581.063171 C 464.895325 580.019836 456.666382 579.437012 440.776306 579.106079 C 426.664032 578.812195 417.34549 578.206055 416.018036 577.495483 C 414.847229 576.868896 413.88974 575.58429 413.890472 574.640869 C 413.891205 573.697449 416.663513 569.549316 420.051239 565.422974 C 423.438965 561.29657 428.197021 554.866089 430.624847 551.132874 C 433.052521 547.399841 436.300934 541.284729 437.843567 537.543884 C 439.386078 533.803101 441.369019 527.854492 442.250061 524.324707 C 443.130981 520.794983 444.376495 514.356934 445.017822 510.017944 C 445.688477 505.479797 445.926086 498.204895 445.576965 492.890625 C 445.243256 487.80957 444.248657 480.105835 443.367004 475.771362 C 442.48526 471.436798 440.254883 464.37085 438.410645 460.069092 C 436.566284 455.767517 433.558197 449.766602 431.7258 446.733826 C 429.893402 443.70108 426.094025 438.497314 423.282898 435.170044 C 420.471771 431.842743 415.069824 426.481445 411.2789 423.256134 C 407.487823 420.030701 400.334686 415.364685 395.383057 412.887085 C 390.431458 410.409424 381.701752 407.054932 375.983765 405.432556 C 370.265778 403.810181 365.186829 402.082184 364.697144 401.592529 C 364.207611 401.102844 364.074005 400.006287 364.400543 399.155548 C 364.726959 398.304932 366.584381 397.350739 368.528137 397.035339 C 370.471924 396.71991 375.959106 396.931396 380.72168 397.505341 C 385.484375 398.079254 392.081909 399.450317 395.383057 400.552002 C 398.684235 401.653809 404.536163 404.09494 408.387421 405.976807 C 412.238678 407.858643 418.389923 411.649963 422.056793 414.401978 C 425.723541 417.153992 430.954285 421.986908 433.680786 425.141785 C 436.407166 428.296631 440.384338 433.588806 442.518951 436.902161 C 444.653564 440.215424 447.944702 446.280334 449.83255 450.379578 C 451.720276 454.478851 454.334167 461.446289 455.641022 465.862671 C 456.947845 470.278931 458.304993 478.168793 458.656921 483.395508 C 459.00885 488.622253 459.214111 498.07547 459.113129 504.402527 C 459.012024 510.729614 458.19754 519.282532 457.303192 523.408875 C 456.4086 527.535278 454.428925 534.287537 452.903778 538.41394 C 451.378601 542.540283 448.28772 549.225403 446.035278 553.269714 C 443.782928 557.314148 441.818146 561.365417 441.669189 562.272705 C 441.435333 563.69751 442.757202 563.961914 451.363953 564.211365 C 461.329437 564.500122 461.329437 564.500122 468.027985 557.362854 C 471.712189 553.437378 477.233673 546.743591 480.297943 542.487671 C 483.362213 538.231689 488.208557 530.509888 491.067413 525.328003 C 493.926392 520.146057 498.456238 510.504547 501.133759 503.902374 C 503.811188 497.300171 507.304779 486.946747 508.897217 480.894653 C 510.489685 474.84259 512.773376 464.939392 513.97229 458.887329 C 515.171082 452.835236 516.710754 444.282471 517.393616 439.880981 C 518.301025 434.033539 518.337524 431.568481 517.52948 430.727875 C 516.729309 429.895569 513.795593 429.819733 506.92038 430.453369 C 501.693634 430.935089 493.590973 431.070374 488.914337 430.75415 C 484.237732 430.437744 477.461914 429.591248 473.856934 428.872864 C 470.251862 428.154633 463.770935 425.844055 459.454803 423.738342 C 454.21756 421.183289 449.102448 417.574677 444.077209 412.889771 C 439.935699 409.028595 434.400635 402.587341 431.777069 398.575623 C 429.153656 394.564026 425.606323 387.649506 423.894196 383.2099 C 422.125305 378.622925 420.913086 373.785736 421.086487 372.005859 C 421.280151 370.019714 422.010132 368.756592 423.081543 368.55365 C 424.250397 368.332367 427.453369 371.87616 433.471985 380.049316 C 438.257263 386.547943 445.713501 395.304047 450.041229 399.507599 C 455.427673 404.739197 460.442169 408.467621 465.936829 411.326233 C 472.690918 414.840118 475.458801 415.67218 483.393463 416.573486 C 490.156342 417.341675 496.091797 417.33374 504.379974 416.54541 C 510.736206 415.940826 522.798462 413.828552 531.185059 411.851318 C 539.571777 409.874207 553.411011 406.443146 561.938782 404.226563 C 570.466553 402.010132 579.919861 399.966858 582.945801 399.686005 C 587.924255 399.223938 588.875732 399.476196 592.949158 402.337891 C 595.425049 404.07724 599.903137 407.11731 602.900696 409.093689 C 605.898315 411.069946 610.358765 413.29126 612.812988 414.029785 C 615.267151 414.768433 619.026489 415.372742 621.167053 415.372742 C 623.307922 415.372742 626.326538 414.717407 627.87561 413.916351 C 629.424744 413.115295 631.508179 410.751953 632.505554 408.664581 C 633.503235 406.577087 634.514526 402.569641 634.753418 399.759033 C 635.016907 396.655579 634.519653 392.351257 633.486633 388.798096 C 632.55127 385.5802 630.728394 380.86087 629.436218 378.310822 C 628.139832 375.752594 623.714294 370.524628 619.563232 366.64798 C 615.425415 362.78363 610.483826 358.883667 608.582031 357.98114 C 606.680298 357.078735 600.47168 355.909149 594.785217 355.381989 C 589.098755 354.85498 577.919189 354.185669 569.941467 353.894684 C 559.694336 353.520782 553.236389 352.755402 547.941162 351.287231 C 543.818726 350.144165 537.802551 347.80011 534.571716 346.078094 C 531.341125 344.356232 526.519714 340.989136 523.857666 338.595734 C 521.195679 336.20224 517.028015 331.597443 514.596375 328.362579 C 512.164795 325.127747 508.931305 319.070282 507.410767 314.901672 C 505.890472 310.733032 504.595367 305.637329 504.53299 303.578186 C 504.441284 300.549591 504.801849 299.779785 506.420197 299.549622 C 507.941956 299.333099 509.737976 301.222656 513.922729 307.442871 C 516.94873 311.940704 522.125427 318.482208 525.426575 321.979584 C 528.727722 325.47699 532.174927 328.597046 533.087341 328.913055 C 534.407349 329.370239 535.0802 328.29837 536.382141 323.663879 C 537.28186 320.460785 539.552734 312.885132 541.428345 306.828888 C 543.591187 299.845367 546.122681 294.011627 548.348755 290.880463 C 550.279602 288.164948 553.719482 284.471069 555.993408 282.671661 C 558.267151 280.872345 562.448242 278.535248 565.284607 277.478271 C 568.121033 276.421265 575.811584 274.126556 582.374817 272.378906 C 588.938049 270.631256 598.616089 267.823792 603.882019 266.139984 C 609.147644 264.456207 617.507385 261.069824 622.458984 258.614777 C 627.410583 256.159729 633.932068 252.537781 636.950928 250.566071 C 639.969971 248.59433 644.866882 244.693237 647.833435 241.897034 C 650.799805 239.100922 653.87085 235.83847 654.657776 234.647278 C 655.970703 232.660309 655.787048 232.061462 652.433411 227.393158 C 649.510559 223.32489 648.669434 221.109314 648.236938 216.340271 C 647.711853 210.547913 647.798279 210.273407 651.233032 206.838684 C 654.512695 203.558899 655.215576 203.301849 660.903259 203.301849 C 665.567444 203.301849 667.181702 202.923676 667.642578 201.723206 C 668.006714 200.774139 666.685242 197.881836 664.329224 194.470764 C 662.173706 191.35022 655.503479 182.269775 649.506653 174.292145 C 643.509766 166.314514 633.545715 153.422241 627.363953 145.642792 C 621.182678 137.863342 612.373352 127.314392 607.788086 122.200745 C 603.20282 117.086975 595.123474 109.451965 589.833862 105.233887 C 584.544495 101.01593 576.357178 95.233582 571.639771 92.384277 C 566.922607 89.53479 558.592163 85.221375 553.127991 82.798645 C 547.663757 80.375854 538.970398 77.256775 533.809509 75.867126 C 528.648682 74.477539 519.699646 72.42395 513.922729 71.303833 C 508.145752 70.183594 501.836639 68.828186 499.902283 68.29187 C 496.887482 67.455627 495.329102 65.705933 488.984924 56.032654 C 483.823669 48.162903 478.38031 41.569031 470.994659 34.239685 C 463.053528 26.359253 458.530151 22.748291 452.909515 19.802856 C 447.422699 16.92749 444.154266 15.856812 440.712433 15.807007 C 436.688507 15.748901 435.512451 16.22168 432.556641 19.085449 C 430.656952 20.925903 427.661926 25.557495 425.901093 29.377747 C 424.140259 33.197937 422.180115 39.344666 421.545502 43.037048 C 420.910767 46.729492 420.391449 56.727783 420.391449 65.255676 C 420.391449 73.783569 420.994659 84.587097 421.731964 89.263733 C 422.469269 93.940308 423.306702 101.1427 423.592834 105.269043 C 424.106171 112.672668 424.024841 112.995789 417.422668 129.777252 C 413.742981 139.130371 409.446136 151.959717 407.874054 158.286804 C 406.302124 164.613861 403.603851 176.993011 401.877808 185.79599 C 400.151886 194.598999 397.621368 205.17746 396.254333 209.303864 C 394.887421 213.430237 391.338867 221.757965 388.368774 227.810028 C 385.138428 234.392334 380.287567 242.157379 376.296112 247.135101 C 372.626434 251.711823 365.480011 259.139374 360.415192 263.640625 C 355.350403 268.141876 341.789703 278.998047 330.280365 287.765625 C 318.771027 296.53299 303.650726 308.373352 296.679657 314.077301 C 289.708588 319.781342 279.266113 329.353271 273.474152 335.348206 C 267.682281 341.343262 260.14035 349.759766 256.714142 354.051483 C 253.288193 358.343445 247.378738 366.581421 243.582184 372.358368 C 239.785629 378.135345 234.034927 388.263733 230.802887 394.865906 C 227.570847 401.468079 223.298187 411.596497 221.308258 417.373413 C 219.318207 423.150391 216.601608 432.378448 215.271454 437.88031 C 213.941177 443.382141 212.170685 453.73288 211.336914 460.881897 C 210.503128 468.030884 209.821014 478.612183 209.821014 484.395844 C 209.821014 490.179504 210.504349 500.753723 211.3396 507.894043 C 212.174957 515.034363 213.716492 524.484802 214.765427 528.894958 C 215.81424 533.305176 218.293945 541.414917 220.275681 546.916748 C 222.257553 552.418579 225.978516 561.171265 228.544571 566.367249 C 231.110733 571.563171 236.324387 580.566162 240.130478 586.373901 C 244.779602 593.467957 250.38121 600.216431 257.199036 606.936829 C 263.619171 613.265259 269.56781 618.115967 273.391357 620.14093 C 278.119873 622.644958 280.949554 623.421326 286.392151 623.707947 C 290.218384 623.909424 337.708771 624.044617 391.926361 624.008301 Z M 242.832062 623.132935 C 247.487061 622.971497 248.310577 622.660828 248.182114 621.114441 C 248.098587 620.10907 246.204407 617.183044 243.972824 614.612244 C 241.741241 612.041321 236.703293 605.661377 232.77742 600.434631 C 228.851547 595.207947 223.234192 586.721802 220.294495 581.576782 C 217.354782 576.431763 212.850601 566.978516 210.285034 560.569763 C 207.719604 554.161011 204.319305 543.96582 202.728806 537.913757 C 201.138306 531.861694 199.04483 520.60791 198.076736 512.905396 C 197.108643 505.20285 196.316498 492.373474 196.316498 484.395844 C 196.316498 476.418213 197.109253 463.588837 198.078201 455.886292 C 199.04715 448.183777 201.135498 436.704834 202.718918 430.377777 C 204.302322 424.05072 207.613007 413.697144 210.075989 407.370087 C 212.538849 401.04303 217.055374 390.914612 220.112549 384.862549 C 223.169724 378.810486 229.218979 368.231995 233.555267 361.354706 C 237.891678 354.477386 249.022964 337.426178 258.291443 323.463135 C 267.560059 309.499969 278.058807 293.069427 281.622253 286.950928 C 285.185577 280.832153 290.768738 269.816162 294.029114 262.470673 C 297.28949 255.125214 301.723328 242.97113 303.882019 235.461639 C 306.04071 227.952179 308.380219 218.431915 309.08078 214.305511 C 309.841888 209.822693 310.354645 198.09198 310.354645 185.160156 C 310.354645 168.2966 309.960571 161.604187 308.570343 154.85437 C 307.588928 150.089844 305.235992 141.459991 303.341675 135.676941 C 301.447235 129.893768 297.601349 120.57373 294.795349 114.965515 C 291.989258 109.357361 287.183929 100.995422 284.11673 96.383301 C 281.049683 91.771118 274.243805 83.521301 268.992676 78.050476 C 263.741516 72.579407 256.188446 65.483276 252.207993 62.281311 C 248.227661 59.079163 240.822479 53.89325 235.752182 50.756958 C 230.68187 47.620483 221.535263 42.878967 215.426407 40.219971 C 209.317429 37.561096 199.817673 34.253357 194.315842 32.869385 C 188.813995 31.485229 180.497986 29.878113 175.835907 29.298096 C 171.173813 28.717957 163.52124 28.254883 158.830215 28.269165 C 154.139191 28.283386 145.980576 28.715393 140.699997 29.22937 C 135.419312 29.743347 127.541672 30.89447 123.194153 31.787476 C 118.846504 32.680603 112.588554 34.30835 109.287399 35.404663 C 105.986244 36.500977 99.233994 39.313538 94.282379 41.654785 C 89.330772 43.996155 82.128296 47.941284 78.277031 50.422119 C 74.425766 52.902771 67.448456 58.089844 62.771847 61.948914 C 58.095234 65.807861 50.847202 72.969666 46.665142 77.864014 C 42.482956 82.758362 36.891853 90.138977 34.240456 94.265381 C 31.588932 98.391785 27.44912 105.970703 25.040722 111.107422 C 22.632324 116.244141 19.359379 124.346863 17.76766 129.113464 C 16.175941 133.879944 14.566883 140.122284 14.191879 142.985046 C 13.510011 148.190277 13.510011 148.190277 17.884155 150.246765 C 20.289988 151.377747 26.424852 153.637177 31.517376 155.267487 C 36.609898 156.897888 44.262482 159.837006 48.523064 161.79895 C 52.783764 163.761047 58.554737 166.877075 61.347664 168.723755 C 64.140587 170.570313 69.320419 174.942017 72.858345 178.438416 C 76.888626 182.421448 80.709 187.502869 83.088089 192.044434 C 85.17643 196.031219 87.760796 201.838226 88.830978 204.948883 C 89.901154 208.059662 91.264648 214.616913 91.860916 219.52066 C 92.644753 225.967499 92.638885 231.258453 91.839546 238.62677 C 91.23156 244.231415 89.862816 252.961395 88.797882 258.026703 C 87.732948 263.091858 83.851646 277.496704 80.172806 290.037384 C 76.493965 302.577972 71.085419 321.391388 68.153893 331.844818 C 65.222374 342.298279 61.714729 356.253021 60.359173 362.855194 C 59.003494 369.457397 57.416294 379.77652 56.831993 385.78656 C 56.24757 391.796509 55.77158 405.301025 55.774143 415.796631 C 55.777443 429.583313 56.327431 438.609192 57.756008 448.31897 C 58.843407 455.710815 60.626354 465.204132 61.717903 469.415253 C 62.809456 473.626373 65.101234 481.308014 66.810669 486.485657 C 68.520103 491.663391 72.584328 501.460999 75.842255 508.258301 C 79.10006 515.055542 84.757713 525.183899 88.414818 530.765869 C 92.071808 536.347656 97.814079 544.290894 101.175316 548.417236 C 104.536545 552.54364 111.974701 560.565735 117.704521 566.244141 C 123.434341 571.922546 132.510742 579.841309 137.874359 583.841309 C 143.237961 587.841431 152.384949 593.930542 158.200851 597.372681 C 164.016876 600.81488 174.218292 605.841003 180.870789 608.54187 C 187.523285 611.242676 197.996506 614.793701 204.144562 616.433167 C 210.292618 618.07251 220.27446 620.293579 226.326538 621.368774 C 232.378616 622.44397 239.806015 623.237915 242.832062 623.132935 Z M 732.245728 398.32666 C 732.658447 398.348877 732.995972 382.186737 732.995972 362.410828 C 732.995972 326.45459 732.995972 326.45459 730.582336 323.647888 C 728.168701 320.841156 728.168701 320.841156 676.314148 320.524872 C 647.794128 320.350983 620.746033 320.503876 616.206909 320.864838 C 610.538513 321.31543 607.262024 322.081177 605.744934 323.309753 C 603.797729 324.886444 603.530823 326.074585 603.494141 333.324829 C 603.452637 341.550842 603.452637 341.550842 609.231689 343.350159 C 612.409973 344.339844 617.88446 347.022034 621.397156 349.310638 C 624.90979 351.599243 630.186951 356.027954 633.124207 359.152313 C 638.464355 364.832916 638.464355 364.832916 645.563416 364.844391 C 652.562317 364.855743 652.739136 364.921692 658.067566 369.504883 C 661.040527 372.06189 668.332275 378.518036 674.271484 383.851746 C 684.059937 392.642273 685.247559 393.423889 686.966431 392.207062 C 688.009216 391.468658 691.37854 388.680115 694.453552 386.010162 C 697.528564 383.340332 701.510803 380.705902 703.302917 380.155914 C 705.751526 379.404205 707.421753 379.519958 710.025391 380.621521 C 711.930603 381.427582 717.540833 385.731995 722.492432 390.186707 C 727.444092 394.641479 731.833008 398.304443 732.245728 398.32666 Z M 696.332581 369.318176 C 694.214905 369.296692 691.085205 368.670868 689.377625 367.92746 C 687.670044 367.184174 685.194092 365.063568 683.875793 363.215057 C 682.022888 360.617035 681.47876 358.565308 681.47876 354.175659 C 681.47876 350.033539 682.034119 347.732849 683.531433 345.672821 C 684.660461 344.119446 687.658081 341.807648 690.19281 340.53537 C 693.624878 338.812866 695.688599 338.388641 698.275635 338.874023 C 700.186401 339.232422 703.183777 340.397858 704.936768 341.463898 C 706.856873 342.631653 708.934937 345.236145 710.164612 348.0159 C 711.522949 351.086853 712.020935 353.767822 711.653381 356.032959 C 711.349548 357.904694 710.168518 360.945129 709.028503 362.789764 C 707.888428 364.634247 705.431824 366.866547 703.569153 367.750397 C 701.706726 368.634247 698.450256 369.339783 696.332581 369.318176 Z M 559.786926 184.29184 C 557.289734 184.289642 554.158325 183.49408 552.435608 182.424133 C 550.785156 181.399017 548.357056 179.389801 547.0401 177.959015 C 545.410645 176.188782 544.492737 173.766815 544.167175 170.377747 C 543.903931 167.638672 543.956909 164.360352 544.284912 163.09259 C 544.613037 161.824829 545.905823 159.637207 547.157959 158.231232 C 548.410095 156.825134 550.547485 154.912018 551.908081 153.979797 C 553.471313 152.908295 556.341675 152.28479 559.710266 152.28479 C 562.641174 152.28479 566.284241 152.92868 567.806213 153.715698 C 569.327942 154.502686 571.82489 156.95285 573.354675 159.16037 C 575.542908 162.318054 576.127869 164.278046 576.096313 168.348755 C 576.067017 172.127716 575.390503 174.528809 573.588196 177.252472 C 572.230774 179.303589 569.549194 181.727386 567.628662 182.638672 C 565.708557 183.549866 562.179565 184.293793 559.786926 184.29184 Z"/>
</svg>
