<?xml version="1.0" encoding="UTF-8"?>
<!-- Generated by Pixelmator Pro 3.7.1 -->
<svg width="746" height="639" viewBox="0 0 746 639" xmlns="http://www.w3.org/2000/svg">
    <path id="LogoFill" fill="#3f696a" fill-rule="evenodd" stroke="none" d="M 410.138 638.010925 C 385.242218 637.975891 338.201569 637.871704 305.603027 637.779541 C 271.649536 637.683411 241.164017 637.138062 234.231277 636.502747 C 227.575241 635.8927 217.446854 634.269958 211.723755 632.896545 C 206.000656 631.523193 197.266769 629.22699 192.31517 627.794006 C 187.363556 626.361023 177.780884 622.751099 171.020325 619.77179 C 164.259888 616.792542 154.356552 611.851929 149.01297 608.792786 C 143.66951 605.733521 135.246033 600.159668 130.294418 596.406433 C 125.342819 592.653137 117.240013 585.783997 112.288406 581.141724 C 107.3368 576.49939 99.69899 568.57782 95.315445 563.538025 C 90.932022 558.498413 84.52961 550.446167 81.087906 545.644226 C 77.64608 540.842224 72.018837 531.75116 68.582748 525.44165 C 65.14666 519.132202 59.927387 508.103455 56.984386 500.933472 C 54.041386 493.763489 50.341175 482.495178 48.761913 475.893005 C 47.182526 469.290833 44.849472 457.136719 43.577438 448.883972 C 41.723305 436.854309 41.264896 429.812653 41.265877 413.37207 C 41.266975 395.903717 41.675312 390.271484 44.021679 375.359375 C 45.536713 365.731171 47.900784 352.901917 49.275146 346.849854 C 50.649628 340.79776 53.839172 328.868866 56.363331 320.340973 C 58.887367 311.81311 62.710178 299.208923 64.85836 292.331604 C 67.00666 285.454315 70.585861 272.399902 72.812187 263.321899 C 75.845673 250.952545 77.011841 243.870087 77.465721 235.059296 C 77.811668 228.345612 77.620682 220.621368 77.02063 217.053253 C 76.442558 213.616333 74.994682 208.219147 73.803001 205.059387 C 72.61132 201.899628 69.616173 196.627014 67.147087 193.342468 C 64.678001 190.057922 59.645069 185.113007 55.962563 182.353912 C 52.280056 179.594574 44.991241 175.571625 39.764153 173.413422 C 34.53743 171.255249 25.534418 168.046143 19.757462 166.282013 C 10.594241 163.483704 8.720324 162.52063 5.072131 158.734924 C 1.855357 155.396912 0.729614 153.324921 0.194523 149.756836 C -0.244222 146.830566 0.06826 142.28656 1.04112 137.447784 C 1.889304 133.228973 3.892049 125.72583 5.491704 120.774231 C 7.091361 115.822632 11.172926 106.369385 14.561754 99.767212 C 17.950705 93.165039 23.703606 83.755981 27.345938 78.858398 C 30.98839 73.960632 38.355232 65.566833 43.716644 60.205139 C 49.078178 54.84375 57.472099 47.491943 62.369858 43.868164 C 67.267487 40.244263 76.451469 34.617004 82.778534 31.362854 C 89.105606 28.108887 99.233994 23.874023 105.286064 21.952148 C 111.338135 20.030212 120.5662 17.620972 125.792923 16.598267 C 133.295914 15.130127 139.928146 14.73877 157.303452 14.73877 C 174.166641 14.73877 181.310272 15.141968 187.864456 16.463989 C 192.569031 17.413025 200.446671 19.350952 205.370316 20.770569 C 210.294083 22.190125 219.711655 25.915222 226.298325 29.048523 C 232.88501 32.181885 242.563171 37.606079 247.805527 41.102478 C 253.04776 44.598877 261.101471 50.65509 265.702484 54.560913 C 270.303619 58.466797 277.055878 64.986816 280.707489 69.049927 C 284.359222 73.113037 289.675232 79.531677 292.521027 83.313477 C 295.366699 87.095276 300.237457 94.67981 303.345062 100.168213 C 306.452698 105.656616 310.999725 115.239075 313.44989 121.462708 C 315.899933 127.686218 318.806915 136.279175 319.909821 140.558197 C 321.012726 144.837219 322.538147 152.939911 323.299622 158.56424 C 324.061218 164.188538 324.982452 173.067841 325.346832 178.295929 C 325.711334 183.523987 325.495544 193.427338 324.867523 200.303284 C 324.239624 207.17923 322.836578 217.432678 321.749908 223.088623 C 320.663116 228.74469 317.536469 239.998444 314.801666 248.096985 C 312.066864 256.195618 306.623871 269.348938 302.706299 277.326599 C 298.788757 285.30423 295.354492 292.903107 295.07486 294.212738 C 294.761261 295.680756 294.984375 296.44809 295.656342 296.213409 C 296.25592 296.00412 302.284058 291.477814 309.052307 286.154999 C 315.820557 280.832153 326.506866 272.504303 332.7995 267.648804 C 339.092133 262.793182 347.9198 255.342194 352.416534 251.091003 C 356.913269 246.839844 362.496948 240.893036 364.824738 237.875916 C 367.152435 234.858673 371.399445 228.15036 374.262482 222.968445 C 377.12561 217.786652 380.895294 209.328644 382.639526 204.172974 C 384.383881 199.017212 387.436066 186.246094 389.422333 175.792633 C 391.408569 165.339203 394.627319 151.834686 396.575104 145.782593 C 398.522766 139.73053 402.354858 129.210175 405.090637 122.403931 C 409.195282 112.192017 409.990479 109.219482 409.639893 105.398254 C 409.406311 102.851379 408.578766 95.590759 407.801025 89.263733 C 407.023193 82.936646 406.386749 70.947754 406.386749 62.622009 C 406.386749 51.991577 406.919006 44.899292 408.174194 38.802856 C 409.15744 34.028198 410.876648 27.676453 411.994812 24.687927 C 413.112854 21.699341 416.00592 16.622742 418.423462 13.406555 C 420.841278 10.190369 424.57251 6.343872 426.715424 4.858887 C 428.918182 3.332397 432.920013 1.793884 435.922607 1.319275 C 439.558472 0.744629 443.282135 0.908325 447.728577 1.838745 C 451.593262 2.647339 456.893005 4.791382 460.815338 7.133118 C 464.440826 9.297607 470.856903 14.058777 475.073151 17.71344 C 479.28952 21.367981 485.394348 27.59552 488.639587 31.55249 C 491.884674 35.509399 496.901123 42.191589 499.787231 46.401855 C 503.073608 51.195923 506.041412 54.413696 507.728119 55.011292 C 509.209442 55.536377 515.373169 56.917419 521.425232 58.080444 C 527.477295 59.243652 538.055786 62.050842 544.933105 64.318848 C 551.810425 66.586914 561.713623 70.636536 566.94043 73.318054 C 572.167297 75.999634 579.819763 80.416016 583.946167 83.132507 C 588.07251 85.848755 594.824768 90.971802 598.951172 94.516907 C 603.077515 98.062073 611.630432 106.327515 617.95752 112.884644 C 624.284607 119.441772 635.019592 131.994904 641.813171 140.780334 C 648.606689 149.565735 658.960022 163.178558 664.820862 171.030914 C 670.681702 178.88327 677.201965 188.118652 679.310303 191.554016 C 683.065247 197.671539 683.135315 197.964722 682.726501 205.802673 C 682.406311 211.94339 681.547119 215.618103 679.03363 221.596527 C 677.232239 225.881653 673.720032 232.183807 671.229248 235.601227 C 668.738403 239.018616 662.372986 246.118164 657.083862 251.377747 C 649.58551 258.834442 645.195129 262.225586 637.151428 266.773743 C 631.477661 269.981842 621.335083 274.755432 614.612427 277.381531 C 607.889709 280.00766 595.651245 283.802399 587.415833 285.814056 C 579.180359 287.825958 570.659729 290.452942 568.481018 291.651947 C 566.302551 292.851074 562.810669 296.082855 560.721558 298.833801 C 558.632263 301.584717 555.984375 306.311249 554.83728 309.337311 C 553.69043 312.363342 551.883423 319.293518 550.821777 324.737701 C 549.760376 330.181915 549.143738 335.429657 549.451477 336.3992 C 549.759155 337.368896 550.781494 338.462891 551.72345 338.830322 C 552.665161 339.197876 558.612732 339.896332 564.939758 340.382599 C 571.266846 340.868713 579.707153 340.993774 583.696045 340.660278 C 590.948486 340.054108 590.948486 340.054108 590.948486 332.564301 C 590.948486 328.445007 591.49408 323.254059 592.160583 321.028839 C 592.827271 318.803589 594.801575 315.55423 596.548035 313.8078 C 598.424133 311.931671 601.588257 310.163025 604.281555 309.484802 C 607.462036 308.68399 626.774658 308.344177 668.167175 308.360901 C 700.796997 308.373962 729.259888 308.794159 731.418091 309.2948 C 733.576233 309.795349 736.502258 311.048798 737.920227 312.080414 C 739.338196 313.112 741.511292 315.938141 742.749268 318.36084 C 744.988281 322.742432 745 323.009949 745 369.411957 C 745 416.058411 745 416.058411 742.68158 420.442566 C 741.036255 423.553833 739.075684 425.472321 735.929321 427.049866 C 731.512817 429.264252 731.256897 429.274017 670.333191 429.561584 C 622.863953 429.785645 608.08313 429.561829 604.311096 428.561737 C 600.820923 427.636383 598.041687 425.889954 594.449646 422.364838 C 591.69873 419.665222 588.026123 416.750061 586.288452 415.886841 C 583.433533 414.468628 582.420471 414.464722 575.784973 415.846802 C 571.745789 416.688141 564.614746 418.28656 559.93811 419.398987 C 555.261475 420.511444 547.998596 422.556091 543.798218 423.942627 C 539.597839 425.329346 535.372986 427.334534 534.410034 428.398865 C 533.239502 429.692261 531.876221 435.045837 530.29834 444.544861 C 529.000061 452.360962 526.804749 463.512146 525.419739 469.325134 C 524.034729 475.138245 521.546143 484.69989 519.889587 490.573425 C 518.232788 496.446991 514.624268 506.733643 511.870483 513.4328 C 509.11676 520.131897 504.359802 530.000793 501.299469 535.363464 C 498.238983 540.726196 491.98349 550.184692 487.398071 556.382446 C 482.812683 562.580078 479.29245 568.254211 479.575531 568.991638 C 479.858459 569.729065 481.512817 571.195374 483.251801 572.250183 C 484.990662 573.304993 488.392792 576.13916 490.811951 578.548401 C 493.231079 580.957581 496.846191 585.434265 498.84552 588.496582 C 500.844849 591.558899 503.759888 596.915283 505.323639 600.399475 C 507.01828 604.175903 508.547852 609.888611 509.110657 614.543396 C 509.943329 621.430542 509.821106 622.880249 508.075775 626.825928 C 506.762573 629.794556 504.662872 632.249512 501.834412 634.123291 C 497.580933 636.940979 497.528046 636.948059 476.487579 637.510742 C 464.891174 637.820923 435.033875 638.045959 410.138 638.010925 Z M 667.642578 201.723175"/>
</svg>
