<?xml version="1.0" encoding="UTF-8"?>
<!-- Generated by Pixelmator Pro 3.7.1 -->
<svg width="1171" height="1002" viewBox="0 0 1171 1002" xmlns="http://www.w3.org/2000/svg">
    <path id="LogoFill" fill="#3f696a" fill-rule="evenodd" stroke="none" d="M 644.238586 1000.994324 C 605.147827 1000.939331 531.285645 1000.775757 480.100159 1000.630981 C 426.78714 1000.480103 378.919464 999.62384 368.033844 998.626221 C 357.582672 997.668335 341.679321 995.1203 332.693024 992.963867 C 323.706726 990.807434 309.993011 987.202026 302.218109 984.951965 C 294.443207 982.701965 279.396698 977.03363 268.781403 972.355652 C 258.166321 967.677673 242.616333 959.920044 234.225952 955.116699 C 225.83577 950.31311 212.609421 941.561096 204.834518 935.667908 C 197.059616 929.774536 184.336777 918.98877 176.561874 911.699585 C 168.786972 904.410339 156.794266 891.972046 149.911316 884.058655 C 143.028564 876.145508 132.975647 863.502075 127.571556 855.962219 C 122.167282 848.422241 113.331505 834.147644 107.936234 824.240601 C 102.54097 814.333618 94.345787 797.016602 89.724754 785.758423 C 85.103722 774.500244 79.293732 756.807007 76.814003 746.44043 C 74.334091 736.073853 70.670776 716.989746 68.673462 704.031433 C 65.762138 685.1427 65.042358 674.08606 65.043892 648.271484 C 65.045624 620.843018 65.68679 611.99939 69.370995 588.584778 C 71.74987 573.466797 75.461884 553.322571 77.619873 543.819763 C 79.778053 534.316895 84.786201 515.586426 88.74958 502.196136 C 92.712769 488.805847 98.715263 469.015015 102.088287 458.216431 C 105.461502 447.417847 111.081474 426.920105 114.577209 412.666077 C 119.340324 393.243958 121.171402 382.123291 121.884087 368.288757 C 122.427277 357.74707 122.127396 345.618591 121.185204 340.016052 C 120.277527 334.619446 118.004112 326.144897 116.132957 321.183533 C 114.261803 316.222168 109.558899 307.943237 105.681992 302.785889 C 101.805092 297.628601 93.902489 289.864197 88.1203 285.531921 C 82.338112 281.19928 70.893379 274.882507 62.685925 271.493774 C 54.479038 268.105042 40.342716 263.066223 31.271868 260.296204 C 16.883986 255.902405 13.941602 254.390137 8.213291 248.445923 C 3.162385 243.204651 1.394769 239.951294 0.554581 234.348755 C -0.134327 229.753967 0.356326 222.61908 1.883888 215.021362 C 3.215688 208.397034 6.360353 196.615845 8.872097 188.840942 C 11.383841 181.06604 17.792624 166.222778 23.113686 155.85614 C 28.43494 145.489563 37.468014 130.715698 43.187122 123.025574 C 48.906422 115.335205 60.473671 102.155457 68.892044 93.736694 C 77.3106 85.318359 90.490547 73.774658 98.180893 68.084717 C 105.871048 62.394531 120.291527 53.558777 130.226151 48.449219 C 140.160767 43.339783 156.064133 36.69043 165.566956 33.672668 C 175.069778 30.654907 189.559479 26.871948 197.766357 25.266174 C 209.547394 22.960938 219.961166 22.346436 247.2435 22.346436 C 273.72168 22.346436 284.938446 22.979553 295.229706 25.055298 C 302.61673 26.545471 314.985992 29.588318 322.71701 31.817444 C 330.448181 34.046387 345.235443 39.895447 355.577698 44.815247 C 365.919952 49.735168 381.116394 58.252075 389.347809 63.742065 C 397.579041 69.232056 410.224792 78.741394 417.449219 84.874268 C 424.673828 91.007141 435.276093 101.24469 441.009766 107.624573 C 446.743622 114.004395 455.090668 124.082764 459.559082 130.020874 C 464.027313 135.958923 471.675262 147.868042 476.554779 156.48584 C 481.434265 165.103577 488.573944 180.149719 492.421143 189.921936 C 496.268127 199.69397 500.832611 213.186401 502.564362 219.905273 C 504.296112 226.624084 506.691284 239.346741 507.886963 248.177917 C 509.082825 257.009094 510.529266 270.951172 511.10141 279.160156 C 511.673737 287.369141 511.33493 302.919128 510.348846 313.715637 C 509.362946 324.512085 507.159882 340.611816 505.453644 349.492615 C 503.747192 358.373657 498.837769 376.044067 494.54364 388.760193 C 490.249512 401.476563 481.703064 422.129578 475.551788 434.655884 C 469.400513 447.182251 464.008118 459.11377 463.569061 461.170166 C 463.07666 463.47522 463.426971 464.680054 464.482086 464.311523 C 465.423523 463.98291 474.888763 456.875854 485.516144 448.518066 C 496.143494 440.160278 512.922913 427.084045 522.803467 419.460022 C 532.684021 411.835876 546.544983 400.136475 553.605652 393.461365 C 560.666382 386.786255 569.433716 377.44873 573.088745 372.711304 C 576.743652 367.973694 583.412231 357.440491 587.907654 349.303955 C 592.40332 341.167664 598.322388 327.887024 601.061157 319.791748 C 603.80011 311.696289 608.592529 291.643372 611.711304 275.229553 C 614.830078 258.815796 619.884094 237.611328 622.942444 228.108521 C 626.000671 218.605652 632.0177 202.086853 636.313354 191.399841 C 642.758423 175.365295 644.006958 170.697876 643.456482 164.697876 C 643.089722 160.698853 641.790344 149.298401 640.569153 139.36377 C 639.347778 129.429138 638.34845 110.604492 638.34845 97.531555 C 638.34845 80.839966 639.184265 69.703735 641.15509 60.131287 C 642.698975 52.634216 645.398438 42.660889 647.154114 37.968323 C 648.909668 33.275757 653.452271 25.304504 657.248291 20.254578 C 661.044678 15.204651 666.903381 9.164978 670.268127 6.833252 C 673.726868 4.43634 680.010437 2.020691 684.725037 1.275391 C 690.43396 0.373047 696.280762 0.630188 703.262451 2.091003 C 709.33075 3.360718 717.652283 6.727234 723.811035 10.404114 C 729.503662 13.802856 739.578064 21.278625 746.198364 27.01709 C 752.818787 32.755371 762.40448 42.533752 767.500061 48.746948 C 772.595459 54.959961 780.472168 65.452148 785.003845 72.063049 C 790.164001 79.590576 794.823975 84.643066 797.472412 85.581421 C 799.798401 86.405884 809.476501 88.574402 818.979309 90.400513 C 828.482178 92.22699 845.092285 96.634827 855.890869 100.195923 C 866.689453 103.757202 882.239258 110.115784 890.446289 114.326294 C 898.653381 118.536804 910.669128 125.471375 917.148254 129.736694 C 923.62738 134.001709 934.229675 142.045776 940.708801 147.612244 C 947.187927 153.178772 960.617554 166.156982 970.552124 176.45282 C 980.486755 186.748718 997.342712 206.459351 1008.009705 220.254028 C 1018.676758 234.048645 1034.93335 255.423218 1044.135864 267.752808 C 1053.338501 280.082397 1063.576416 294.583618 1066.886963 299.977722 C 1072.782837 309.583313 1072.892822 310.043701 1072.250977 322.350647 C 1071.748169 331.992676 1070.39917 337.762573 1066.452515 347.149841 C 1063.624023 353.878235 1058.109253 363.773743 1054.198242 369.139648 C 1050.287231 374.505554 1040.292358 385.653137 1031.987549 393.91156 C 1020.213745 405.619934 1013.320068 410.944641 1000.690002 418.08606 C 991.781189 423.123352 975.855591 430.618713 965.299744 434.742188 C 954.743896 438.865662 935.527344 444.824036 922.596252 447.982727 C 909.665161 451.141785 896.286194 455.266602 892.865234 457.149231 C 889.444702 459.032104 883.961792 464.106567 880.68158 468.426025 C 877.40094 472.745422 873.243347 480.166992 871.4422 484.918396 C 869.641418 489.6698 866.804077 500.551422 865.137146 509.099792 C 863.470581 517.648132 862.502319 525.888 862.985474 527.4104 C 863.468628 528.932983 865.073853 530.650757 866.552917 531.227661 C 868.031616 531.80481 877.3703 532.901489 887.304932 533.665039 C 897.239502 534.428345 910.49231 534.624634 916.755554 534.101013 C 928.143188 533.149292 928.143188 533.149292 928.143188 521.388916 C 928.143188 514.920898 928.999878 506.770172 930.046326 503.276184 C 931.093262 499.782166 934.193237 494.680054 936.935425 491.937866 C 939.881287 488.992004 944.849548 486.214905 949.078491 485.150024 C 954.072449 483.892578 984.396667 483.359009 1049.390259 483.385254 C 1100.624878 483.405762 1145.31665 484.065552 1148.705322 484.851685 C 1152.094116 485.637573 1156.688477 487.605774 1158.914917 489.225586 C 1161.141357 490.845337 1164.553467 495.282898 1166.497314 499.086945 C 1170.012939 505.966797 1170.031372 506.386902 1170.031372 579.246277 C 1170.031372 652.489502 1170.031372 652.489502 1166.391113 659.373413 C 1163.807617 664.258667 1160.729126 667.270996 1155.788818 669.748047 C 1148.854126 673.224976 1148.452271 673.240356 1052.79126 673.691895 C 978.256104 674.043701 955.047607 673.692261 949.124878 672.121948 C 943.644653 670.668945 939.280762 667.926758 933.640625 662.391724 C 929.321228 658.152832 923.554565 653.575439 920.826172 652.220093 C 916.343323 649.993286 914.752686 649.987183 904.33374 652.157227 C 897.991516 653.478271 886.794495 655.988098 879.451416 657.734802 C 872.108276 659.481567 860.704224 662.691956 854.108826 664.869141 C 847.513489 667.046509 840.879822 670.194946 839.367798 671.86615 C 837.529785 673.897034 835.389282 682.303101 832.911682 697.218262 C 830.873108 709.490967 827.426086 727.000244 825.251404 736.127686 C 823.076721 745.255249 819.169128 760.268799 816.568054 769.491333 C 813.966614 778.713806 808.300598 794.865662 803.976685 805.384521 C 799.652832 815.903381 792.183594 831.399292 787.378296 839.81958 C 782.572815 848.240051 772.750549 863.091553 765.550659 872.82312 C 758.350769 882.554504 752.823425 891.463928 753.267822 892.621826 C 753.712097 893.779724 756.309753 896.082092 759.040283 897.738281 C 761.770569 899.394531 767.112549 903.844727 770.911011 907.627625 C 774.709534 911.4104 780.385864 918.439636 783.525146 923.248047 C 786.664429 928.056396 791.241577 936.466858 793.69696 941.937683 C 796.357849 947.86731 798.759583 956.837341 799.64325 964.146118 C 800.950745 974.960205 800.758789 977.236511 798.018311 983.431885 C 795.95636 988.093201 792.659485 991.947876 788.218262 994.890076 C 781.539551 999.314331 781.456543 999.3255 748.41925 1000.208984 C 730.210815 1000.695984 683.32959 1001.049377 644.238586 1000.994324 Z M 1048.566528 315.945129"/>
</svg>
