<?xml version="1.0" encoding="UTF-8"?>
<!-- Generated by Pixelmator Pro 3.7.1 -->
<svg width="1171" height="1001" viewBox="0 0 1171 1001" xmlns="http://www.w3.org/2000/svg">
    <path id="LogoOutline" fill="#ffffff" fill-rule="evenodd" stroke="none" d="M 644.238647 1000.994324 C 605.147827 1000.939331 531.285706 1000.775757 480.100189 1000.630981 C 426.78717 1000.480103 378.919464 999.62384 368.033844 998.626221 C 357.582672 997.668335 341.679321 995.1203 332.693024 992.963867 C 323.706726 990.807434 309.993011 987.202026 302.218109 984.951965 C 294.443207 982.701965 279.396698 977.03363 268.781403 972.355652 C 258.166321 967.677673 242.616333 959.920044 234.225952 955.116699 C 225.83577 950.31311 212.609421 941.561096 204.834518 935.667908 C 197.059616 929.774536 184.336777 918.98877 176.561874 911.699585 C 168.786972 904.410339 156.79425 891.971985 149.911316 884.058655 C 143.028564 876.145508 132.975647 863.502075 127.571556 855.962219 C 122.167282 848.422241 113.331497 834.147644 107.936234 824.240601 C 102.54097 814.333618 94.345787 797.016602 89.724754 785.758423 C 85.103714 774.500244 79.293724 756.807007 76.814003 746.44043 C 74.334091 736.073853 70.670776 716.989746 68.673462 704.031433 C 65.762138 685.1427 65.042358 674.08606 65.043892 648.271484 C 65.045624 620.843018 65.686783 611.99939 69.370995 588.584778 C 71.74987 573.466797 75.461884 553.322571 77.619873 543.819763 C 79.778053 534.316895 84.786201 515.586426 88.74958 502.196136 C 92.712769 488.805847 98.715263 469.015015 102.08828 458.216431 C 105.461494 447.417847 111.081474 426.920105 114.577209 412.666077 C 119.340324 393.243958 121.171402 382.123291 121.884087 368.288757 C 122.427277 357.74707 122.127396 345.618591 121.185204 340.016113 C 120.277527 334.619507 118.004112 326.144958 116.132957 321.183594 C 114.261803 316.222229 109.558899 307.943237 105.681992 302.785889 C 101.805092 297.628601 93.902489 289.864258 88.1203 285.531921 C 82.338112 281.19928 70.893379 274.882568 62.685925 271.493774 C 54.479038 268.105042 40.342716 263.066223 31.271868 260.296204 C 16.883986 255.902405 13.941601 254.390137 8.213291 248.445984 C 3.162385 243.204651 1.394769 239.951294 0.554581 234.348755 C -0.134327 229.753967 0.356326 222.61908 1.883888 215.021362 C 3.215688 208.397034 6.360353 196.615845 8.872097 188.840942 C 11.383841 181.06604 17.792622 166.222778 23.113686 155.856201 C 28.434938 145.489563 37.468014 130.715698 43.187122 123.025574 C 48.906418 115.335205 60.473671 102.155457 68.892036 93.736694 C 77.3106 85.318359 90.490547 73.774658 98.180893 68.084717 C 105.871048 62.394592 120.291527 53.558777 130.226135 48.449219 C 140.160767 43.339844 156.064133 36.69043 165.566956 33.672668 C 175.069778 30.654968 189.559479 26.872009 197.766357 25.266174 C 209.547394 22.960938 219.961166 22.346436 247.2435 22.346436 C 273.72168 22.346436 284.938446 22.979553 295.229706 25.055298 C 302.61673 26.545471 314.985992 29.588318 322.71698 31.817444 C 330.448181 34.046387 345.235443 39.895447 355.577698 44.815247 C 365.919952 49.735168 381.116394 58.252075 389.347809 63.742065 C 397.579041 69.232056 410.224823 78.741394 417.449249 84.874268 C 424.673859 91.007141 435.276093 101.244751 441.009796 107.624573 C 446.743652 114.004395 455.090698 124.082825 459.559113 130.020874 C 464.027313 135.958923 471.675293 147.868042 476.554779 156.48584 C 481.434296 165.103577 488.573975 180.149719 492.421143 189.921936 C 496.268158 199.69397 500.832611 213.186462 502.564392 219.905273 C 504.296143 226.624084 506.691315 239.346741 507.886963 248.177917 C 509.082825 257.009094 510.529297 270.951172 511.10144 279.160156 C 511.673767 287.369141 511.334961 302.919189 510.348877 313.715637 C 509.362976 324.512085 507.159912 340.611816 505.453644 349.492676 C 503.747192 358.373657 498.837799 376.044067 494.543671 388.760193 C 490.249542 401.476563 481.703094 422.129578 475.551819 434.655884 C 469.400543 447.182251 464.008148 459.11377 463.569092 461.170166 C 463.076691 463.47522 463.427002 464.680054 464.482117 464.311584 C 465.423553 463.98291 474.888794 456.875854 485.516144 448.518066 C 496.143524 440.160278 512.922913 427.084045 522.803467 419.460083 C 532.684021 411.835876 546.545044 400.136475 553.605713 393.461426 C 560.666382 386.786316 569.433716 377.44873 573.088806 372.711304 C 576.743652 367.973694 583.412231 357.440491 587.907715 349.303955 C 592.40332 341.167664 598.322388 327.887024 601.061157 319.791748 C 603.80011 311.696289 608.59259 291.643372 611.711365 275.229553 C 614.830139 258.815796 619.884094 237.611328 622.942505 228.108521 C 626.000671 218.605652 632.017761 202.086853 636.313416 191.399841 C 642.758423 175.365356 644.007019 170.697876 643.456543 164.697876 C 643.089722 160.698853 641.790344 149.298401 640.569153 139.36377 C 639.347839 129.429199 638.348511 110.604492 638.348511 97.531555 C 638.348511 80.839966 639.184265 69.703735 641.155151 60.131287 C 642.698975 52.634216 645.398438 42.660889 647.154175 37.968323 C 648.909729 33.275757 653.452332 25.304565 657.248291 20.254578 C 661.044678 15.204651 666.903381 9.164978 670.268127 6.833252 C 673.726868 4.43634 680.010437 2.020691 684.725037 1.275391 C 690.434021 0.373108 696.280823 0.630188 703.262512 2.091064 C 709.33075 3.360718 717.652283 6.727234 723.811035 10.404175 C 729.503723 13.802856 739.578125 21.278625 746.198364 27.017151 C 752.818848 32.755432 762.40448 42.533752 767.500061 48.746948 C 772.595459 54.960022 780.472168 65.452209 785.003845 72.063049 C 790.164063 79.590637 794.823975 84.643066 797.472473 85.581421 C 799.798401 86.405884 809.476501 88.574402 818.979309 90.400513 C 828.482117 92.22699 845.092224 96.634827 855.890808 100.195923 C 866.689392 103.757263 882.239197 110.115784 890.446289 114.326294 C 898.653381 118.536804 910.669067 125.471375 917.148254 129.736694 C 923.62738 134.001709 934.229614 142.045776 940.708801 147.612305 C 947.187927 153.178772 960.617493 166.156982 970.552124 176.452881 C 980.486755 186.748718 997.342651 206.459351 1008.009705 220.254028 C 1018.676758 234.048706 1034.93335 255.423218 1044.135864 267.752808 C 1053.338501 280.082397 1063.576416 294.583618 1066.886963 299.977722 C 1072.782837 309.583313 1072.892822 310.043701 1072.250977 322.350647 C 1071.748169 331.992676 1070.39917 337.762634 1066.452393 347.149841 C 1063.623901 353.878235 1058.109253 363.773743 1054.198242 369.139648 C 1050.287109 374.505615 1040.292358 385.653137 1031.987427 393.911621 C 1020.213745 405.619934 1013.320007 410.944641 1000.690002 418.08606 C 991.781189 423.123352 975.85553 430.618713 965.299683 434.742188 C 954.743835 438.865662 935.527283 444.824097 922.596252 447.982727 C 909.665161 451.141785 896.286194 455.266602 892.865234 457.149231 C 889.444641 459.032104 883.961792 464.106567 880.681519 468.426025 C 877.40094 472.745483 873.243347 480.166992 871.442139 484.918396 C 869.641357 489.66983 866.804077 500.551422 865.137085 509.099792 C 863.47052 517.648193 862.502258 525.888 862.985474 527.4104 C 863.468628 528.932983 865.073853 530.650757 866.552917 531.227661 C 868.031555 531.80481 877.370239 532.901489 887.304871 533.665039 C 897.239502 534.428345 910.49231 534.624634 916.755554 534.101074 C 928.143127 533.149292 928.143127 533.149292 928.143127 521.388916 C 928.143127 514.920898 928.999817 506.770203 930.046326 503.276184 C 931.093201 499.782166 934.193176 494.680084 936.935425 491.937866 C 939.881226 488.992004 944.849487 486.214905 949.07843 485.150024 C 954.072388 483.892639 984.396606 483.359009 1049.390259 483.385254 C 1100.624756 483.405823 1145.316528 484.065552 1148.705322 484.851685 C 1152.094116 485.637634 1156.688477 487.605774 1158.914917 489.225555 C 1161.141357 490.845337 1164.553467 495.282898 1166.497314 499.086945 C 1170.012939 505.966827 1170.031372 506.386902 1170.031372 579.246277 C 1170.031372 652.489502 1170.031372 652.489502 1166.391113 659.373413 C 1163.807617 664.258667 1160.729126 667.270996 1155.788818 669.748047 C 1148.854126 673.224976 1148.452271 673.240356 1052.79126 673.691895 C 978.256104 674.043701 955.047546 673.692261 949.124817 672.121948 C 943.644653 670.668945 939.280701 667.926758 933.640625 662.391724 C 929.321167 658.152832 923.554504 653.5755 920.826111 652.220093 C 916.343323 649.993286 914.752686 649.987183 904.33374 652.157227 C 897.991516 653.478271 886.794495 655.988098 879.451355 657.734863 C 872.108276 659.481567 860.704163 662.691956 854.108826 664.869141 C 847.513489 667.046509 840.879822 670.194946 839.367798 671.86615 C 837.529785 673.897034 835.389221 682.303101 832.911621 697.218262 C 830.873108 709.490967 827.426086 727.000244 825.251404 736.127686 C 823.076721 745.25531 819.169128 760.268799 816.568054 769.491333 C 813.966553 778.713867 808.300537 794.865723 803.976746 805.384521 C 799.652893 815.903381 792.183594 831.399292 787.378296 839.81958 C 782.572815 848.240051 772.750549 863.091553 765.550659 872.82312 C 758.350769 882.554504 752.823425 891.463928 753.267883 892.621826 C 753.712097 893.779724 756.309753 896.082092 759.040283 897.738281 C 761.77063 899.394531 767.112549 903.844727 770.911072 907.627686 C 774.709534 911.4104 780.385864 918.439636 783.525208 923.248047 C 786.66449 928.056396 791.241577 936.466858 793.69696 941.937683 C 796.35791 947.86731 798.759583 956.837341 799.643311 964.146118 C 800.950745 974.960205 800.758789 977.236511 798.018311 983.431885 C 795.956421 988.093201 792.659485 991.947876 788.218323 994.890076 C 781.539551 999.314331 781.456543 999.3255 748.41925 1000.208984 C 730.210815 1000.695984 683.32959 1001.049377 644.238647 1000.994324 Z M 615.643066 979.007751 C 763.451355 978.909058 770.626892 978.773682 774.857361 976.00116 C 778.575134 973.564758 779.156067 972.302185 778.470642 968.147644 C 778.021423 965.424988 775.792664 958.249634 773.517883 952.202454 C 771.243164 946.155334 766.930054 937.499939 763.933167 932.968262 C 760.93634 928.436768 755.132324 922.294678 751.034912 919.319153 C 746.937866 916.343628 740.051514 912.859192 735.732056 911.576294 C 730.217346 909.938049 717.296448 909.022949 692.346191 908.503296 C 670.187439 908.041809 655.555664 907.090027 653.471313 905.974304 C 651.632935 904.99054 650.129517 902.97345 650.130676 901.492065 C 650.131836 900.010742 654.484802 893.497437 659.804138 887.018311 C 665.123474 880.539185 672.594482 870.442139 676.406616 864.580383 C 680.218506 858.718811 685.319092 849.117065 687.741272 843.243225 C 690.163269 837.369568 693.276855 828.029175 694.660278 822.486816 C 696.043457 816.944458 697.999146 806.835571 699.006165 800.022644 C 700.059143 792.896973 700.432312 781.47406 699.884094 773.1297 C 699.360107 765.15155 697.798401 753.055298 696.414063 746.249451 C 695.029541 739.443359 691.527466 728.348572 688.631714 721.594116 C 685.735718 714.839844 681.012451 705.417297 678.135254 700.655396 C 675.258118 695.893433 669.292419 687.722534 664.878479 682.498169 C 660.464478 677.273682 651.982483 668.85553 646.030029 663.791199 C 640.077393 658.726685 628.845642 651.400269 621.07074 647.509888 C 613.295837 643.619629 599.588623 638.352417 590.610413 635.804993 C 581.632141 633.257568 573.657288 630.544312 572.888428 629.775513 C 572.119751 629.006592 571.909973 627.28479 572.422668 625.948975 C 572.935181 624.613342 575.851685 623.115112 578.903748 622.619873 C 581.955811 622.124634 590.571655 622.456665 598.049744 623.35791 C 605.528076 624.259033 615.88739 626.411865 621.07074 628.141724 C 626.25415 629.871704 635.442749 633.704712 641.489868 636.659546 C 647.537048 639.61438 657.195557 645.567444 662.953247 649.88855 C 668.710693 654.209717 676.923889 661.798279 681.204956 666.751953 C 685.485901 671.705688 691.730713 680.01532 695.082458 685.217896 C 698.434204 690.420288 703.601868 699.943237 706.566101 706.379822 C 709.530151 712.816406 713.63446 723.75647 715.686401 730.69104 C 717.738403 737.625366 719.869324 750.013794 720.421936 758.220703 C 720.974487 766.427551 721.296814 781.270813 721.138245 791.205444 C 720.979492 801.140076 719.700623 814.569641 718.296326 821.048828 C 716.891663 827.527954 713.783264 838.130188 711.388489 844.609375 C 708.993713 851.088501 704.140442 861.585266 700.603699 867.935547 C 697.067139 874.286072 693.982056 880.647339 693.748169 882.071899 C 693.380981 884.309082 695.456543 884.724182 708.970703 885.115906 C 724.618286 885.569336 724.618286 885.569336 735.136169 874.362549 C 740.921021 868.198853 749.590759 857.688416 754.402161 851.005859 C 759.213623 844.323242 766.823242 832.198608 771.312134 824.062134 C 775.80127 815.925598 782.91394 800.786682 787.118103 790.420105 C 791.322144 780.053467 796.807678 763.796753 799.308167 754.293945 C 801.808594 744.791138 805.394409 729.241333 807.276855 719.738464 C 809.15918 710.235596 811.576782 696.806274 812.648926 689.895142 C 814.07373 680.713623 814.131042 676.843018 812.862366 675.523132 C 811.605896 674.216309 806.999451 674.097168 796.204102 675.092163 C 787.997253 675.848511 775.274597 676.060974 767.931458 675.564331 C 760.588379 675.067627 749.949097 673.738464 744.288696 672.610474 C 738.628052 671.482666 728.451843 667.854614 721.674744 664.54834 C 713.451355 660.536499 705.419739 654.870239 697.529175 647.51416 C 691.026306 641.451416 682.335266 631.337524 678.21582 625.038452 C 674.096558 618.739502 668.526611 607.882446 665.838257 600.911499 C 663.060791 593.709106 661.15741 586.113892 661.429688 583.319092 C 661.733765 580.200562 662.880005 578.217224 664.562256 577.89856 C 666.397583 577.551147 671.426819 583.115479 680.877136 595.948792 C 688.390869 606.152832 700.09845 619.901428 706.893799 626.50177 C 715.35144 634.716309 723.225098 640.570557 731.852661 645.059143 C 742.457764 650.576538 746.803894 651.883057 759.262695 653.298218 C 769.881592 654.504456 779.201355 654.491943 792.215271 653.25415 C 802.195679 652.30481 821.135559 648.988159 834.304016 645.883606 C 847.472656 642.779175 869.202698 637.391846 882.592773 633.911377 C 895.982849 630.431213 910.826294 627.2229 915.577515 626.78186 C 923.394592 626.056396 924.888611 626.452515 931.284546 630.945801 C 935.17218 633.67688 942.203552 638.450378 946.910278 641.553589 C 951.617004 644.656677 958.620789 648.144531 962.474304 649.304199 C 966.32782 650.463989 972.230591 651.412903 975.591736 651.412903 C 978.953247 651.412903 983.692932 650.38385 986.125305 649.126099 C 988.557678 647.868286 991.829102 644.15741 993.395203 640.879883 C 994.96167 637.602173 996.549622 631.309753 996.924683 626.896545 C 997.33844 622.02356 996.557678 615.265076 994.935608 609.685913 C 993.466919 604.633301 990.604675 597.223083 988.575684 593.219055 C 986.540222 589.202148 979.59137 580.993408 973.073486 574.906372 C 966.576294 568.838623 958.817078 562.714966 955.830994 561.297852 C 952.84491 559.88092 943.096252 558.044434 934.16748 557.216736 C 925.238708 556.389221 907.684875 555.338318 895.158386 554.881409 C 879.068665 554.294312 868.928528 553.092529 860.614075 550.787231 C 854.141052 548.992432 844.69458 545.31189 839.621643 542.607971 C 834.549072 539.904297 826.978516 534.617371 822.798706 530.859375 C 818.618835 527.101135 812.07489 519.870728 808.256836 514.791504 C 804.438782 509.712189 799.361633 500.200928 796.974121 493.655426 C 794.587036 487.109924 792.553467 479.108826 792.455505 475.875549 C 792.311462 471.120117 792.877686 469.911377 795.418762 469.549988 C 797.808167 469.210022 800.628235 472.176941 807.199036 481.943787 C 811.950439 489.006226 820.078735 499.277527 825.262146 504.769043 C 830.445496 510.260559 835.858215 515.159607 837.290894 515.655823 C 839.363525 516.373657 840.420044 514.690613 842.464294 507.413666 C 843.877014 502.384216 847.442749 490.489105 850.387817 480.979736 C 853.783813 470.014343 857.758728 460.85437 861.254089 455.937866 C 864.285828 451.674011 869.687012 445.874023 873.257507 443.048584 C 876.827637 440.223328 883.3927 436.553711 887.846375 434.894043 C 892.299988 433.234375 904.375549 429.631287 914.680969 426.887146 C 924.986389 424.143005 940.182678 419.734802 948.451111 417.090942 C 956.719116 414.447083 969.845398 409.129883 977.6203 405.275024 C 985.395203 401.420166 995.635071 395.733093 1000.375183 392.637146 C 1005.115662 389.541138 1012.804626 383.415771 1017.462708 379.025208 C 1022.120361 374.634827 1026.942505 369.512207 1028.178101 367.641846 C 1030.239624 364.521912 1029.951172 363.581604 1024.685425 356.251526 C 1020.096008 349.863647 1018.77533 346.384766 1018.096191 338.896545 C 1017.271729 329.801514 1017.407471 329.370483 1022.800598 323.977356 C 1027.950317 318.827515 1029.053955 318.423889 1037.984619 318.423889 C 1045.308105 318.423889 1047.842896 317.830078 1048.566528 315.945129 C 1049.138306 314.454956 1047.063354 309.913513 1043.363892 304.557556 C 1039.97937 299.657715 1029.505981 285.399841 1020.089844 272.873535 C 1010.673706 260.347229 995.028381 240.104065 985.32196 227.888977 C 975.616272 215.673828 961.784058 199.110107 954.584351 191.080811 C 947.384644 183.05127 934.698608 171.062988 926.393005 164.439819 C 918.087769 157.816895 905.232239 148.73761 897.825073 144.263611 C 890.418274 139.789429 877.338074 133.016541 868.75824 129.212524 C 860.178406 125.408264 846.52832 120.510742 838.424805 118.328796 C 830.321472 116.146851 816.269897 112.922424 807.199036 111.163635 C 798.128174 109.404602 788.221741 107.276367 785.184448 106.434265 C 780.450684 105.121216 778.003784 102.37384 768.042297 87.18512 C 759.938171 74.828247 751.391174 64.474731 739.794373 52.966309 C 727.325378 40.592651 720.2229 34.922791 711.397461 30.297913 C 702.782227 25.783142 697.650208 24.10199 692.245911 24.023743 C 685.927612 23.932495 684.080994 24.674866 679.43988 29.171448 C 676.457031 32.06134 671.754272 39.333679 668.989441 45.332153 C 666.224609 51.330627 663.146912 60.982056 662.150452 66.779785 C 661.153809 72.577454 660.338318 88.276672 660.338318 101.666931 C 660.338318 115.05719 661.285522 132.020691 662.443237 139.36377 C 663.600891 146.706909 664.915833 158.015869 665.365051 164.495056 C 666.171143 176.119995 666.043457 176.627319 655.676819 202.977234 C 649.899048 217.663269 643.152222 237.807678 640.683838 247.74231 C 638.215637 257.67688 633.978821 277.114319 631.268616 290.936584 C 628.558655 304.75885 624.585266 321.368958 622.438782 327.848145 C 620.29248 334.327271 614.720642 347.40332 610.057068 356.906128 C 604.984863 367.241455 597.368164 379.43396 591.100891 387.249939 C 585.338806 394.436157 574.117615 406.098755 566.164978 413.166504 C 558.212341 420.234314 536.919678 437.280396 518.847961 451.047058 C 500.776245 464.813354 477.034698 483.404846 466.088867 492.361023 C 455.143036 501.317413 438.746521 516.347046 429.6521 525.760132 C 420.557861 535.173401 408.715668 548.388794 403.335938 555.127563 C 397.956573 561.866699 388.677704 574.801819 382.716431 583.872681 C 376.755157 592.943481 367.725525 608.846924 362.650665 619.213501 C 357.575775 629.580078 350.866943 645.483459 347.742401 654.554321 C 344.617676 663.625122 340.352112 678.114868 338.26355 686.753723 C 336.174774 695.392578 333.394775 711.645081 332.085602 722.8703 C 330.776428 734.095459 329.705383 750.709961 329.705383 759.791382 C 329.705383 768.872803 330.778351 785.476196 332.089813 796.687744 C 333.401489 807.899353 335.82196 822.738159 337.468994 829.662964 C 339.115814 836.587646 343.009399 849.321411 346.121094 857.960327 C 349.232971 866.599182 355.075531 880.342468 359.104675 888.500977 C 363.134033 896.659546 371.320404 910.795898 377.296631 919.915039 C 384.596588 931.053955 393.39209 941.650269 404.097321 952.202454 C 414.17804 962.139221 423.518463 969.755737 429.522095 972.935303 C 436.946686 976.867065 441.389801 978.086121 449.935669 978.536133 C 455.943542 978.852478 530.511841 979.064697 615.643066 979.007751 Z M 381.538574 977.63324 C 388.847748 977.379761 390.140839 976.891968 389.939117 974.463806 C 389.807983 972.885254 386.833771 968.290894 383.329773 964.254272 C 379.825806 960.217407 371.915344 950.199768 365.751038 941.99292 C 359.5867 933.786011 350.766479 920.461304 346.150604 912.38269 C 341.53476 904.304077 334.462372 889.460815 330.43399 879.397949 C 326.405823 869.335083 321.066711 853.326782 318.569366 843.823975 C 316.071991 834.321167 312.784882 816.650757 311.264771 804.556396 C 309.74469 792.462097 308.500916 772.317688 308.500916 759.791382 C 308.500916 747.265076 309.745667 727.120728 311.26709 715.026367 C 312.788513 702.932007 316.067596 684.908081 318.553833 674.97345 C 321.04007 665.038818 326.238434 648.78186 330.105743 638.84729 C 333.97287 628.912659 341.064606 613.009277 345.864929 603.50647 C 350.665222 594.003662 360.163635 577.393555 366.972382 566.594971 C 373.781311 555.796387 391.25943 529.022888 405.812592 507.09845 C 420.365936 485.173767 436.85083 459.374939 442.446075 449.767822 C 448.041138 440.160278 456.807678 422.863159 461.927063 411.329468 C 467.046417 399.795776 474.008331 380.711731 477.397858 368.920532 C 480.787384 357.129333 484.460846 342.180786 485.560822 335.70166 C 486.75592 328.662842 487.561035 310.243469 487.561035 289.938232 C 487.561035 263.459473 486.942291 252.951172 484.759369 242.352783 C 483.218384 234.871582 479.523834 221.321228 476.549438 212.240784 C 473.574829 203.160156 467.536102 188.526123 463.130188 179.720215 C 458.724091 170.914368 451.178894 157.784668 446.362854 150.542786 C 441.547028 143.300903 430.860596 130.347229 422.615387 121.757019 C 414.370148 113.166504 402.510498 102.024292 396.260468 96.996643 C 390.010651 91.968689 378.383179 83.825867 370.421906 78.901306 C 362.460632 73.976563 348.098846 66.531433 338.506866 62.356384 C 328.914673 58.181519 313.998383 52.987793 305.359497 50.814636 C 296.720642 48.641296 283.663025 46.117859 276.342712 45.207153 C 269.02243 44.296204 257.0065 43.569153 249.640778 43.591553 C 242.27504 43.613831 229.464569 44.292175 221.173126 45.099182 C 212.8815 45.906189 200.512222 47.713684 193.685837 49.115845 C 186.859253 50.51825 177.033157 53.074097 171.849762 54.795471 C 166.666367 56.516907 156.064133 60.933167 148.28923 64.609314 C 140.514328 68.285645 129.205154 74.480286 123.157982 78.37561 C 117.110809 82.270691 106.155197 90.415283 98.812088 96.474731 C 91.468971 102.533936 80.08828 113.779297 73.521698 121.464233 C 66.954926 129.149231 58.175903 140.738159 54.012737 147.217285 C 49.849377 153.696472 43.349136 165.596741 39.567524 173.662354 C 35.785912 181.727905 30.646807 194.450562 28.147526 201.934998 C 25.648245 209.419189 23.121738 219.220764 22.532915 223.71582 C 21.462261 231.888977 21.462261 231.888977 28.330442 235.117981 C 32.108028 236.89386 41.740856 240.441528 49.737019 243.001404 C 57.733185 245.561462 69.7491 250.176392 76.438965 253.257019 C 83.129028 256.33783 92.190475 261.23053 96.575867 264.130188 C 100.961258 267.029602 109.094513 273.893921 114.649689 279.383911 C 120.977943 285.638 126.976601 293.616699 130.712189 300.747742 C 133.991272 307.007751 138.049164 316.125732 139.729553 321.010071 C 141.409927 325.894531 143.550842 336.190552 144.487091 343.89032 C 145.71785 354.013 145.708649 362.32074 144.453537 373.89032 C 143.498886 382.690613 141.349716 396.398193 139.677582 404.351624 C 138.005447 412.304871 131.911118 434.922974 126.134682 454.614136 C 120.358246 474.305054 111.865868 503.845459 107.262856 520.259216 C 102.659851 536.672974 97.152229 558.584412 95.023766 568.950989 C 92.895111 579.317627 90.402924 595.520447 89.485466 604.957336 C 88.567818 614.394043 87.820427 635.598511 87.824455 652.078369 C 87.829628 673.726013 88.693207 687.898193 90.936333 703.144287 C 92.643745 714.750854 95.443283 729.656982 97.157211 736.269165 C 98.87114 742.881409 102.469643 754.942993 105.153763 763.072754 C 107.837875 771.202759 114.219429 786.586731 119.334953 797.259705 C 124.450279 807.932495 133.333801 823.835876 139.076111 832.600525 C 144.818222 841.36499 153.834625 853.837219 159.11235 860.316345 C 164.390076 866.795532 176.069305 879.391602 185.066147 888.307739 C 194.062973 897.223877 208.314529 909.657776 216.736359 915.938477 C 225.158173 922.21936 239.520554 931.780273 248.652573 937.18512 C 257.78476 942.589966 273.802795 950.481812 284.248383 954.722656 C 294.694 958.963501 311.138824 964.539185 320.792358 967.113403 C 330.445892 969.6875 346.119171 973.174988 355.621979 974.86322 C 365.124817 976.551453 376.78717 977.798096 381.538574 977.63324 Z M 1150.004883 624.647461 C 1150.652954 624.682373 1151.182983 599.304932 1151.182983 568.253296 C 1151.182983 511.795593 1151.182983 511.795593 1147.393066 507.38855 C 1143.603271 502.981476 1143.603271 502.981476 1062.182495 502.484894 C 1017.40094 502.211853 974.930603 502.451904 967.803406 503.018677 C 958.903015 503.726196 953.758362 504.928558 951.376221 506.857635 C 948.318787 509.333313 947.899658 511.198914 947.842102 522.583069 C 947.776917 535.49939 947.776917 535.49939 956.851074 538.324585 C 961.841553 539.878662 970.4375 544.090088 975.952942 547.683594 C 981.468445 551.2771 989.754517 558.231018 994.366516 563.13678 C 1002.751526 572.056396 1002.751526 572.056396 1013.898315 572.074341 C 1024.887817 572.092224 1025.165527 572.19574 1033.532104 579.392212 C 1038.200073 583.407104 1049.649414 593.544434 1058.975098 601.919312 C 1074.344727 615.721985 1076.209473 616.94928 1078.908325 615.038635 C 1080.545776 613.879211 1085.836182 609.500732 1090.664551 605.308411 C 1095.492798 601.116272 1101.745728 596.979736 1104.55957 596.116211 C 1108.404297 594.935852 1111.026855 595.117615 1115.115112 596.84729 C 1118.106567 598.112915 1126.915649 604.871582 1134.690552 611.866333 C 1142.465454 618.861084 1149.356812 624.612549 1150.004883 624.647461 Z M 1093.614868 579.098999 C 1090.289795 579.065308 1085.37561 578.082642 1082.694458 576.915344 C 1080.013184 575.74823 1076.125488 572.418579 1074.055542 569.516052 C 1071.146118 565.436646 1070.291748 562.215088 1070.291748 555.322571 C 1070.291748 548.818726 1071.163818 545.206177 1073.514893 541.971619 C 1075.287598 539.532532 1079.994385 535.902588 1083.974487 533.904907 C 1089.363403 531.200256 1092.60376 530.53418 1096.665894 531.296326 C 1099.666138 531.85907 1104.372437 533.688965 1107.125 535.362854 C 1110.139893 537.196411 1113.402832 541.28595 1115.333618 545.650635 C 1117.466553 550.472656 1118.248413 554.68219 1117.671265 558.238892 C 1117.194214 561.177856 1115.339844 565.951904 1113.549683 568.848267 C 1111.759644 571.744385 1107.902344 575.249512 1104.977539 576.637329 C 1102.053223 578.025146 1096.940063 579.132935 1093.614868 579.098999 Z M 879.213989 288.574829 C 875.292969 288.57135 870.376099 287.322205 867.671082 285.642212 C 865.07959 284.032593 861.26709 280.877747 859.199219 278.631165 C 856.640686 275.851563 855.199402 272.048706 854.688232 266.727234 C 854.274902 262.426392 854.358093 257.27887 854.873108 255.288269 C 855.388306 253.297668 857.418213 249.862671 859.384277 247.655029 C 861.350342 245.447205 864.706482 242.443298 866.842773 240.979553 C 869.297424 239.297058 873.804382 238.318054 879.093567 238.318054 C 883.695618 238.318054 889.415894 239.329102 891.805725 240.564819 C 894.195129 241.800598 898.115723 245.647766 900.517822 249.113953 C 903.953735 254.072083 904.872131 257.149597 904.822693 263.541321 C 904.776672 269.474976 903.714417 273.245117 900.884399 277.52179 C 898.753052 280.742371 894.542542 284.548157 891.526917 285.979065 C 888.512024 287.40979 882.970886 288.577881 879.213989 288.574829 Z"/>
</svg>
